<svg xmlns="http://www.w3.org/2000/svg" width="133.371" height="47.747" viewBox="0 0 133.371 47.747">
  <g id="Group_1" data-name="Group 1" transform="translate(-245.874 -309.413)">
    <path id="Path_1" data-name="Path 1" d="M258.691,357.065c-6.01-4.133-12.817-11.67-12.817-23.765,0-12.156,6.807-19.754,12.817-23.887h1.1a35.811,35.811,0,0,0,0,47.652Z" transform="translate(0)" fill="#980321"/>
    <path id="Path_2" data-name="Path 2" d="M880.315,333.286c0,12.12-6.821,19.732-12.842,23.873h-1.106a35.882,35.882,0,0,0,0-47.747h1.106C873.494,313.554,880.315,321.167,880.315,333.286Z" transform="translate(-501.07)" fill="#980321"/>
    <path id="Path_3" data-name="Path 3" d="M382.344,378.58a.7.7,0,0,1,.035,1.179h0a3.612,3.612,0,0,0-.776,4.58,3.447,3.447,0,0,0,3.059,1.81l.064,0,.029,0a3.682,3.682,0,0,0,.637-.059l.059-.009c.04-.008.08-.018.12-.027a3.448,3.448,0,0,0,2.824-3.367c0-.057.006-.332,0-.4a3.6,3.6,0,0,0-.611-1.792h0c-1.076-1.848-3.592-3.772-7.826-3.772-6.308,0-12.188,4.768-12.188,11.285,0,6.2,6.147,10.808,12.028,10.808a9.907,9.907,0,0,0,9.408-6.834l-1.176-.636c-1.6,3.709-3.8,6.093-7.965,6.093-3.422,0-4.116-1.377-4.116-6.834v-6.835c0-5.033,1.6-5.669,3.956-5.669a5,5,0,0,1,2.438.482" transform="translate(-98.434 -54.467)" fill="#980321"/>
    <path id="Path_4" data-name="Path 4" d="M547.655,376.942a2.587,2.587,0,1,0,2.393-3.555H550c-2.032,0-3.1,1.59-4.226,3.02a13.348,13.348,0,0,0-7.7-2.384c-6.468,0-10.05,4.186-10.05,7.1,0,2.172,1.123,3.974,3.635,5.351-2.94.795-5.025,2.279-5.025,5.563a5.985,5.985,0,0,0,3.421,5.192c-2.352,1.06-3.421,2.543-3.421,4.185,0,3.787,5.17,5.563,10.584,5.563,6.308,0,13.364-2.861,13.364-10.119,0-3.232-1.938-6.093-8-6.093H531.61c-.909,0-2.673,0-2.673-1.06,0-1.431,2.566-2.384,3.635-2.119a26.772,26.772,0,0,0,5.025.371c4.33,0,10.852-1.377,10.852-6.888a6.141,6.141,0,0,0-1.5-3.708Zm-15.8,20.6h13.866c1.016,0,2.726,0,2.726,1.378,0,5.3-6.789,6.675-10.958,6.675-3.828,0-7.3-1.861-7.3-4.405A4.672,4.672,0,0,1,531.857,397.545Zm9.162-12.451c0,1.166-1.55,1.59-2.726,1.59s-3.207-.053-3.207-1.59V378.1c0-2.225.909-2.7,3.1-2.7,1.764,0,2.833.477,2.833,2.7Z" transform="translate(-226.728 -51.77)" fill="#980321"/>
    <path id="Path_5" data-name="Path 5" d="M705.618,379.368c0-.954,2.245-1.272,2.833-1.272,3.956,0,3.742,1.642,3.742,4.4v3.55c-4.758.106-13.632,1.642-13.632,7.841,0,3.285,3.368,4.927,6.254,4.927a10.094,10.094,0,0,0,7.484-3.655,5.406,5.406,0,0,0,4.758,3.655,5.822,5.822,0,0,0,5.559-3.02l-.962-1.007a2.011,2.011,0,0,1-1.337.742c-1.5,0-1.55-1.325-1.55-2.437V382.781c0-4.228-2.94-6.062-9.836-6.062-2.656,0-6.73.865-8.466,3.439a4.1,4.1,0,0,0-.681,2.041,3.4,3.4,0,0,0,.33,1.458l0,0c.037.078.076.156.119.231.029.051.06.1.091.149s.054.084.083.125.041.055.062.082a3.478,3.478,0,0,0,6.263-2.049,3.429,3.429,0,0,0-.978-2.393m6.437,12.912c0,1.43-1.23,3.073-3.689,3.073-2.138,0-3.1-2.384-3.1-4.185,0-3.762,3.9-4.133,6.789-4.292Zm-6.437-12.912a.677.677,0,0,1-.139-.439m1.117,2.832" transform="translate(-365.562 -54.467)" fill="#980321"/>
  </g>
</svg>
