<svg xmlns="http://www.w3.org/2000/svg" width="143" height="51.194" viewBox="0 0 143 51.194">
  <g id="Group_25" data-name="Group 25" transform="translate(-245.874 -309.413)">
    <path id="Path_1" data-name="Path 1" d="M259.617,360.505c-6.444-4.431-13.742-12.513-13.742-25.481,0-13.034,7.3-21.18,13.742-25.611H260.8a38.4,38.4,0,0,0,0,51.092Z" transform="translate(0)" fill="#fff"/>
    <path id="Path_2" data-name="Path 2" d="M881.322,335.01c0,12.995-7.313,21.157-13.77,25.6h-1.186a38.473,38.473,0,0,0,0-51.194h1.186C874.009,313.853,881.322,322.016,881.322,335.01Z" transform="translate(-492.448)" fill="#fff"/>
    <path id="Path_3" data-name="Path 3" d="M383.4,378.715a.752.752,0,0,1,.038,1.264h0a3.872,3.872,0,0,0-.832,4.91,3.7,3.7,0,0,0,3.28,1.941l.069,0,.031,0a3.947,3.947,0,0,0,.683-.063l.064-.01c.043-.008.086-.019.129-.028a3.7,3.7,0,0,0,3.028-3.61c0-.061.006-.356,0-.434a3.862,3.862,0,0,0-.655-1.921h0c-1.154-1.982-3.851-4.044-8.392-4.044-6.763,0-13.068,5.112-13.068,12.1,0,6.646,6.591,11.588,12.9,11.588a10.622,10.622,0,0,0,10.087-7.328l-1.261-.682c-1.72,3.977-4.069,6.533-8.54,6.533-3.669,0-4.413-1.477-4.413-7.328v-7.328c0-5.4,1.719-6.078,4.241-6.078a5.359,5.359,0,0,1,2.614.517" transform="translate(-96.74 -53.54)" fill="#fff"/>
    <path id="Path_4" data-name="Path 4" d="M549.172,377.2a2.774,2.774,0,1,0,2.566-3.812h-.05c-2.178,0-3.327,1.7-4.531,3.238a14.312,14.312,0,0,0-8.254-2.556c-6.935,0-10.775,4.488-10.775,7.612,0,2.329,1.2,4.26,3.9,5.737-3.153.852-5.388,2.443-5.388,5.965a6.417,6.417,0,0,0,3.668,5.567c-2.522,1.136-3.668,2.727-3.668,4.488,0,4.06,5.543,5.965,11.349,5.965,6.763,0,14.329-3.067,14.329-10.85,0-3.465-2.078-6.532-8.578-6.532H531.969c-.974,0-2.866,0-2.866-1.136,0-1.534,2.752-2.556,3.9-2.272a28.7,28.7,0,0,0,5.387.4c4.643,0,11.635-1.477,11.635-7.385a6.584,6.584,0,0,0-1.6-3.976Zm-16.939,22.091H547.1c1.089,0,2.923,0,2.923,1.477,0,5.68-7.279,7.157-11.75,7.157-4.1,0-7.832-2-7.832-4.723A5.009,5.009,0,0,1,532.234,399.289Zm9.823-13.349c0,1.25-1.662,1.7-2.923,1.7s-3.439-.057-3.439-1.7v-7.5c0-2.386.975-2.9,3.324-2.9,1.891,0,3.038.511,3.038,2.9Z" transform="translate(-222.827 -50.889)" fill="#fff"/>
    <path id="Path_5" data-name="Path 5" d="M706.128,379.559c0-1.023,2.407-1.363,3.038-1.363,4.241,0,4.012,1.761,4.012,4.715v3.806c-5.1.114-14.616,1.761-14.616,8.407,0,3.522,3.611,5.283,6.706,5.283a10.823,10.823,0,0,0,8.024-3.919,5.8,5.8,0,0,0,5.1,3.919,6.243,6.243,0,0,0,5.961-3.238l-1.032-1.079a2.156,2.156,0,0,1-1.433.8c-1.6,0-1.662-1.42-1.662-2.613V383.219c0-4.534-3.152-6.5-10.546-6.5-2.848,0-7.216.928-9.077,3.687a4.394,4.394,0,0,0-.73,2.189,3.646,3.646,0,0,0,.354,1.564l0,0c.04.084.081.167.127.247.031.055.064.107.1.16s.058.09.089.134.044.059.066.088a3.729,3.729,0,0,0,6.715-2.2,3.676,3.676,0,0,0-1.049-2.565m6.9,13.845c0,1.534-1.319,3.295-3.955,3.295-2.293,0-3.324-2.556-3.324-4.488,0-4.033,4.184-4.431,7.279-4.6Zm-6.9-13.845a.726.726,0,0,1-.149-.471m1.2,3.036" transform="translate(-359.272 -53.54)" fill="#fff"/>
  </g>
</svg>
